<svg width="30" height="30" viewBox="0 0 30 30" fill="none" xmlns="http://www.w3.org/2000/svg">
<path d="M25.415 6.71191L22.2949 3.59473C21.9141 3.21387 21.4043 3 20.8652 3C20.3262 3 19.8164 3.21094 19.4355 3.59473L16.0752 6.94922C15.6943 7.33008 15.4805 7.84277 15.4805 8.38184C15.4805 8.92383 15.6914 9.43066 16.0752 9.81445L18.7002 12.4424C18.1022 13.8357 17.243 15.1017 16.1689 16.1719C15.0938 17.2529 13.8369 18.1055 12.4424 18.709L9.81738 16.0811C9.43652 15.7002 8.92676 15.4863 8.3877 15.4863C8.12181 15.4853 7.8584 15.5374 7.6129 15.6396C7.3674 15.7417 7.14475 15.8918 6.95801 16.0811L3.59473 19.4355C3.21387 19.8164 3 20.3291 3 20.8682C3 21.4102 3.21094 21.917 3.59473 22.3008L6.71191 25.418C7.3623 26.0684 8.25879 26.4404 9.17871 26.4404C9.36914 26.4404 9.55371 26.4258 9.74121 26.3936C13.6201 25.7549 17.4697 23.6895 20.5781 20.584C23.6836 17.4727 25.7461 13.623 26.3906 9.74121C26.5752 8.63965 26.2061 7.50586 25.415 6.71191ZM24.3135 9.39258C23.7422 12.8467 21.8848 16.292 19.0869 19.0898C16.2891 21.8877 12.8467 23.7451 9.39258 24.3164C8.95899 24.3896 8.51367 24.2432 8.19727 23.9297L5.13574 20.8682L8.38184 17.6191L11.8916 21.1348L11.918 21.1611L12.5508 20.9268C14.4695 20.2213 16.2119 19.1071 17.6572 17.6613C19.1025 16.2155 20.2161 14.4727 20.9209 12.5537L21.1553 11.9209L17.6162 8.38477L20.8623 5.13574L23.9238 8.19727C24.2402 8.51367 24.3867 8.95898 24.3135 9.39258Z" fill="#A6A6A6"/>
</svg>
